<?xml version="1.0" encoding="utf-8"?>
<!-- Generator: Adobe Illustrator 25.0.1, SVG Export Plug-In . SVG Version: 6.00 Build 0)  -->
<svg
    viewBox="0 0 32 32"
    fill="none"
    xmlns="http://www.w3.org/2000/svg"
  >
    <g clipPath="url(#clip0_42_2298)">
      <path
        d="M22.9223 9.07765V9.18331H22.8167H22.711V2.74696C22.711 1.40729 21.6207 0.316957 20.281 0.316957H11.7189C10.3793 0.316957 9.28894 1.40729 9.28894 2.74696V9.18331H9.18329H9.07764V9.07765V2.74696C9.07764 1.29107 10.2609 0.105652 11.7189 0.105652H20.281C21.7369 0.105652 22.9223 1.29107 22.9223 2.74696V9.07765Z"
        fill="#D9D9D9"
        stroke="#4BA88C"
        strokeMiterlimit="10"
      />
      <path
        d="M22.9223 22.9223V29.253C22.9223 30.711 21.7369 31.8943 20.281 31.8943H11.7189C10.2609 31.8943 9.07764 30.711 9.07764 29.253V22.9223V22.8167H9.18329H9.28894V29.253C9.28894 30.5927 10.3793 31.683 11.7189 31.683H20.281C21.6207 31.683 22.711 30.5927 22.711 29.253V22.8167H22.8167H22.9223V22.9223Z"
        stroke="#4BA88C"
        strokeMiterlimit="10"
      />
      <path
        d="M22.8991 15.0343L23.7528 16.1479H31.683V11.7189C31.683 10.3793 30.5927 9.28894 29.253 9.28894H22.8167V9.18329V9.07764H22.9224H29.253C30.7089 9.07764 31.8944 10.2631 31.8944 11.7189V16.3592H23.6492L22.7322 15.1632"
        fill="#D9D9D9"
      />
      <path
        d="M22.8991 15.0343L23.7528 16.1479H31.683V11.7189C31.683 10.3793 30.5927 9.28894 29.253 9.28894H22.8167V9.18329V9.07764H22.9224H29.253C30.7089 9.07764 31.8944 10.2631 31.8944 11.7189V16.3592H23.6492L22.7322 15.1632"
        stroke="#4BA88C"
        strokeMiterlimit="10"
      />
      <path
        d="M9.18331 22.8167V22.9223H9.07765H2.74696C1.28896 22.9223 0.105652 21.739 0.105652 20.281V19.0808H9.1178H9.18331V19.1865V19.2921H0.316957V20.281C0.316957 21.6207 1.40729 22.711 2.74696 22.711H9.18331V22.8167Z"
        stroke="#4BA88C"
        strokeMiterlimit="10"
      />
      <path
        d="M9.27628 13.1136L7.69149 16.1585H0.105652V11.7189C0.105652 10.2631 1.28896 9.07764 2.74696 9.07764H9.07765H9.18331V9.18329V9.28894H2.74696C1.40729 9.28894 0.316957 10.3793 0.316957 11.7189V15.9472H7.56471L9.08822 13.0164"
        fill="#D9D9D9"
      />
      <path
        d="M9.27628 13.1136L7.69149 16.1585H0.105652V11.7189C0.105652 10.2631 1.28896 9.07764 2.74696 9.07764H9.07765H9.18331V9.18329V9.28894H2.74696C1.40729 9.28894 0.316957 10.3793 0.316957 11.7189V15.9472H7.56471L9.08822 13.0164"
        stroke="#4BA88C"
        strokeMiterlimit="10"
      />
      <path
        d="M22.8652 19.0808H31.8943V20.281C31.8943 21.739 30.7089 22.9223 29.253 22.9223H22.9223H22.8167V22.8167V22.711H29.253C30.5927 22.711 31.683 21.6207 31.683 20.281V19.2921H22.8167V19.1865V19.0808H22.8652Z"
        stroke="#4BA88C"
        strokeMiterlimit="10"
      />
      <path
        d="M22.7321 15.1632L20.1437 11.7887L15.9915 17.7538L11.1949 9.42419L9.27626 13.1136L9.0882 13.0164L11.1843 8.98468L16.0084 17.3587L20.1352 11.4295L22.8991 15.0343L22.7321 15.1632Z"
        fill="#D9D9D9"
        stroke="#4BA88C"
        strokeMiterlimit="10"
      />
      <path
        d="M22.8167 19.1865L22.7364 19.2541L20.3296 16.4247L15.9936 22.6138L11.3809 14.9921L9.27626 19.2329L9.18328 19.1865L9.0882 19.14L9.11778 19.0808L11.3639 14.5547L16.0063 22.2271L20.3148 16.0803L22.8653 19.0808L22.897 19.1188L22.8167 19.1865Z"
        stroke="#4BA88C"
        strokeMiterlimit="10"
      />
    </g>
    <defs>
      <clipPath id="clip0_42_2298">
        <rect width="32" height="32" fill="white" />
      </clipPath>
    </defs>
  </svg>